<svg width="90" height="90" viewBox="0 0 90 90" fill="none" xmlns="http://www.w3.org/2000/svg">
<path fill-rule="evenodd" clip-rule="evenodd" d="M19.0909 33.2103C21.9842 33.2103 24.759 31.8108 26.8048 29.3195C28.8507 26.8282 30 23.4494 30 19.9262C30 16.403 28.8507 13.0242 26.8048 10.5329C24.759 8.04164 21.9842 6.64207 19.0909 6.64207C16.1977 6.64207 13.4229 8.04164 11.377 10.5329C9.33119 13.0242 8.18184 16.403 8.18184 19.9262C8.18184 23.4494 9.33119 26.8282 11.377 29.3195C13.4229 31.8108 16.1977 33.2103 19.0909 33.2103ZM19.0909 39.8524C21.2398 39.8524 23.3677 39.337 25.353 38.3356C27.3384 37.3342 29.1423 35.8665 30.6618 34.0162C32.1813 32.1658 33.3866 29.9692 34.209 27.5516C35.0313 25.1341 35.4546 22.5429 35.4546 19.9262C35.4546 17.3095 35.0313 14.7183 34.209 12.3008C33.3866 9.88322 32.1813 7.68657 30.6618 5.83625C29.1423 3.98593 27.3384 2.51818 25.353 1.51679C23.3677 0.515408 21.2398 -3.89925e-08 19.0909 0C14.751 7.8749e-08 10.5889 2.09936 7.52009 5.83625C4.45132 9.57314 2.72729 14.6414 2.72729 19.9262C2.72729 25.211 4.45132 30.2793 7.52009 34.0162C10.5889 37.753 14.751 39.8524 19.0909 39.8524Z" fill="#BFBE1D"/>
<path fill-rule="evenodd" clip-rule="evenodd" d="M12.84 32.5196C13.094 32.8281 13.2955 33.1945 13.433 33.598C13.5705 34.0015 13.6412 34.434 13.6412 34.8709C13.6412 35.3077 13.5705 35.7402 13.433 36.1437C13.2955 36.5472 13.094 36.9137 12.84 37.2222L10.9964 39.4605C7.44837 43.7822 5.45501 49.6427 5.45455 55.7535V68.0812C5.45455 68.962 5.16721 69.8067 4.65575 70.4295C4.14428 71.0523 3.45059 71.4022 2.72727 71.4022C2.00396 71.4022 1.31026 71.0523 0.7988 70.4295C0.287337 69.8067 0 68.962 0 68.0812V55.7535C0.000773232 47.8812 2.56901 40.3316 7.14 34.7646L8.97818 32.5196C9.23152 32.2103 9.53248 31.9649 9.86382 31.7975C10.1952 31.6301 10.5504 31.5439 10.9091 31.5439C11.2678 31.5439 11.623 31.6301 11.9544 31.7975C12.2857 31.9649 12.5867 32.2103 12.84 32.5196ZM77.16 30.5269C76.906 30.8354 76.7045 31.2019 76.567 31.6054C76.4295 32.0089 76.3588 32.4414 76.3588 32.8782C76.3588 33.3151 76.4295 33.7476 76.567 34.1511C76.7045 34.5546 76.906 34.921 77.16 35.2295L79.0036 37.4679C80.7607 39.6076 82.1544 42.1477 83.1053 44.9432C84.0561 47.7388 84.5455 50.735 84.5455 53.7609V68.0812C84.5455 68.962 84.8328 69.8067 85.3443 70.4295C85.8557 71.0523 86.5494 71.4022 87.2727 71.4022C87.996 71.4022 88.6897 71.0523 89.2012 70.4295C89.7127 69.8067 90 68.962 90 68.0812V53.7609C89.9992 45.8886 87.431 38.3389 82.86 32.772L81.0218 30.5269C80.7685 30.2177 80.4675 29.9723 80.1362 29.8049C79.8048 29.6374 79.4496 29.5513 79.0909 29.5513C78.7322 29.5513 78.377 29.6374 78.0456 29.8049C77.7143 29.9723 77.4133 30.2177 77.16 30.5269Z" fill="#BFBE1D"/>
<path fill-rule="evenodd" clip-rule="evenodd" d="M68.1818 33.2103C65.2885 33.2103 62.5137 31.8108 60.4679 29.3195C58.422 26.8282 57.2727 23.4494 57.2727 19.9262C57.2727 16.403 58.422 13.0242 60.4679 10.5329C62.5137 8.04164 65.2885 6.64207 68.1818 6.64207C71.075 6.64207 73.8498 8.04164 75.8957 10.5329C77.9415 13.0242 79.0909 16.403 79.0909 19.9262C79.0909 23.4494 77.9415 26.8282 75.8957 29.3195C73.8498 31.8108 71.075 33.2103 68.1818 33.2103ZM68.1818 39.8524C66.0329 39.8524 63.905 39.337 61.9197 38.3356C59.9344 37.3342 58.1304 35.8665 56.6109 34.0162C55.0914 32.1658 53.8861 29.9692 53.0637 27.5516C52.2414 25.1341 51.8181 22.5429 51.8181 19.9262C51.8181 17.3095 52.2414 14.7183 53.0637 12.3008C53.8861 9.88322 55.0914 7.68657 56.6109 5.83625C58.1304 3.98593 59.9344 2.51818 61.9197 1.51679C63.905 0.515408 66.0329 -3.89926e-08 68.1818 0C72.5217 7.8749e-08 76.6838 2.09936 79.7526 5.83625C82.8214 9.57314 84.5454 14.6414 84.5454 19.9262C84.5454 25.211 82.8214 30.2793 79.7526 34.0162C76.6838 37.753 72.5217 39.8524 68.1818 39.8524ZM43.6363 61.4391C40.0197 61.4391 36.5513 63.1886 33.994 66.3027C31.4366 69.4167 30 73.6403 30 78.0443V86.679C30 87.5598 29.7126 88.4045 29.2012 89.0273C28.6897 89.6501 27.996 90 27.2727 90C26.5494 90 25.8557 89.6501 25.3442 89.0273C24.8327 88.4045 24.5454 87.5598 24.5454 86.679V78.0443C24.5454 71.8787 26.5568 65.9657 30.137 61.606C33.7172 57.2463 38.5731 54.7971 43.6363 54.7971C48.6995 54.7971 53.5554 57.2463 57.1356 61.606C60.7159 65.9657 62.7272 71.8787 62.7272 78.0443V86.679C62.7272 87.5598 62.4399 88.4045 61.9284 89.0273C61.417 89.6501 60.7233 90 60 90C59.2766 90 58.5829 89.6501 58.0715 89.0273C57.56 88.4045 57.2727 87.5598 57.2727 86.679V78.0443C57.2727 75.8637 56.92 73.7044 56.2347 71.6898C55.5494 69.6751 54.5449 67.8446 53.2787 66.3027C52.0124 64.7607 50.5092 63.5376 48.8547 62.7031C47.2003 61.8686 45.4271 61.4391 43.6363 61.4391Z" fill="#BFBE1D"/>
<path fill-rule="evenodd" clip-rule="evenodd" d="M43.6363 51.476C46.5296 51.476 49.3044 50.0764 51.3502 47.5851C53.3961 45.0939 54.5454 41.715 54.5454 38.1918C54.5454 34.6687 53.3961 31.2898 51.3502 28.7985C49.3044 26.3073 46.5296 24.9077 43.6363 24.9077C40.7431 24.9077 37.9683 26.3073 35.9225 28.7985C33.8766 31.2898 32.7273 34.6687 32.7273 38.1918C32.7273 41.715 33.8766 45.0939 35.9225 47.5851C37.9683 50.0764 40.7431 51.476 43.6363 51.476ZM43.6363 58.118C47.9762 58.118 52.1384 56.0187 55.2072 52.2818C58.276 48.5449 60 43.4766 60 38.1918C60 32.9071 58.276 27.8388 55.2072 24.1019C52.1384 20.365 47.9762 18.2656 43.6363 18.2656C39.2964 18.2656 35.1343 20.365 32.0655 24.1019C28.9967 27.8388 27.2727 32.9071 27.2727 38.1918C27.2727 43.4766 28.9967 48.5449 32.0655 52.2818C35.1343 56.0187 39.2964 58.118 43.6363 58.118Z" fill="#BFBE1D"/>
</svg>
