<svg width="90" height="90" viewBox="0 0 90 90" fill="none" xmlns="http://www.w3.org/2000/svg">
<g clip-path="url(#clip0_205_143)">
<path d="M44.9999 0.650739C20.5061 0.650739 0.647217 20.5027 0.647217 45C0.647217 69.4973 20.5095 89.3527 44.9999 89.3527C69.4938 89.3527 89.3526 69.4938 89.3526 45C89.3526 20.5061 69.4903 0.650739 44.9999 0.650739ZM44.9999 7.57382C65.6376 7.57382 82.4295 24.3623 82.4295 45C82.4295 65.6377 65.6376 82.4296 44.9999 82.4296C24.3622 82.4296 7.57029 65.6377 7.57029 45C7.57376 24.3623 24.3622 7.57382 44.9999 7.57382ZM31.1538 31.1538C29.3176 31.1538 27.5567 31.8832 26.2584 33.1815C24.9601 34.4799 24.2307 36.2408 24.2307 38.0769C24.2307 39.913 24.9601 41.6739 26.2584 42.9722C27.5567 44.2706 29.3176 45 31.1538 45C32.9899 45 34.7508 44.2706 36.0491 42.9722C37.3474 41.6739 38.0768 39.913 38.0768 38.0769C38.0768 36.2408 37.3474 34.4799 36.0491 33.1815C34.7508 31.8832 32.9899 31.1538 31.1538 31.1538ZM58.8461 31.1538C57.0099 31.1538 55.249 31.8832 53.9507 33.1815C52.6524 34.4799 51.923 36.2408 51.923 38.0769C51.923 39.913 52.6524 41.6739 53.9507 42.9722C55.249 44.2706 57.0099 45 58.8461 45C60.6822 45 62.4431 44.2706 63.7414 42.9722C65.0397 41.6739 65.7691 39.913 65.7691 38.0769C65.7691 36.2408 65.0397 34.4799 63.7414 33.1815C62.4431 31.8832 60.6822 31.1538 58.8461 31.1538ZM19.9038 55.71C22.7337 59.7334 26.4928 63.0143 30.8619 65.2742C35.231 67.5341 40.081 68.7061 44.9999 68.6907C49.9189 68.7064 54.769 67.5345 59.1381 65.2746C63.5073 63.0147 67.2664 59.7336 70.0961 55.71C62.7919 60.9857 54.0101 63.8238 44.9999 63.8204C35.6295 63.8204 26.9722 60.795 19.9038 55.71Z" fill="#0B5D99"/>
</g>
<defs>
<clipPath id="clip0_205_143">
<rect width="90" height="90" fill="white"/>
</clipPath>
</defs>
</svg>
