<svg width="54" height="57" viewBox="0 0 54 57" fill="none" xmlns="http://www.w3.org/2000/svg">
<path d="M53.5 28.5C53.5 43.9898 41.6104 56.5 27 56.5C12.3896 56.5 0.5 43.9898 0.5 28.5C0.5 13.0102 12.3896 0.5 27 0.5C41.6104 0.5 53.5 13.0102 53.5 28.5Z" stroke="black"/>
<path d="M27 12C28.8565 12 30.637 12.7112 31.9497 13.977C33.2625 15.2429 34 16.9598 34 18.75C34 20.5402 33.2625 22.2571 31.9497 23.523C30.637 24.7888 28.8565 25.5 27 25.5C25.1435 25.5 23.363 24.7888 22.0503 23.523C20.7375 22.2571 20 20.5402 20 18.75C20 16.9598 20.7375 15.2429 22.0503 13.977C23.363 12.7112 25.1435 12 27 12ZM27 28.875C34.735 28.875 41 31.8956 41 35.625V39H13V35.625C13 31.8956 19.265 28.875 27 28.875Z" fill="black"/>
</svg>
