<svg width="95" height="96" viewBox="0 0 95 96" fill="none" xmlns="http://www.w3.org/2000/svg">
<path d="M31.6364 43.9091C37.0612 43.9091 42.2639 41.7541 46.0999 37.9181C49.9359 34.0821 52.0909 28.8794 52.0909 23.4545C52.0909 18.0297 49.9359 12.827 46.0999 8.991C42.2639 5.15503 37.0612 3 31.6364 3C26.2115 3 21.0088 5.15503 17.1728 8.991C13.3368 12.827 11.1818 18.0297 11.1818 23.4545C11.1818 28.8794 13.3368 34.0821 17.1728 37.9181C21.0088 41.7541 26.2115 43.9091 31.6364 43.9091ZM31.6364 43.9091C39.8714 43.9091 47.0673 47.0182 52.185 52.185C55.2198 55.2608 57.4898 59.0064 58.8123 63.12M31.6364 43.9091C15.2727 43.9091 3 56.1818 3 72.5455V93H43.9091M48 75.9164L65.1409 88.9091L93 52.0909" stroke="#E65250" stroke-width="5"/>
</svg>
