<svg width="1440" height="358" viewBox="0 0 1440 358" fill="none" xmlns="http://www.w3.org/2000/svg">
<g clip-path="url(#clip0_211_141)">
<path d="M0 35.8L30 89.5001C60 143.2 120 250.6 180 280.471C240 309.894 300 262.906 360 250.6C420 238.294 480 262.906 540 274.429C600 286.4 660 286.4 720 250.6C780 214.8 840 143.2 900 95.4294C960 48.1063 1020 23.4938 1080 59.6294C1140 95.0938 1200 191.306 1260 238.629C1320 286.4 1380 286.4 1410 286.4H1440V358H1410C1380 358 1320 358 1260 358C1200 358 1140 358 1080 358C1020 358 960 358 900 358C840 358 780 358 720 358C660 358 600 358 540 358C480 358 420 358 360 358C300 358 240 358 180 358C120 358 60 358 30 358H0V35.8Z" fill="#0D74BF" fill-opacity="0.7"/>
</g>
<defs>
<clipPath id="clip0_211_141">
<rect width="1440" height="358" fill="white"/>
</clipPath>
</defs>
</svg>
