<svg width="1433" height="320" viewBox="0 0 1433 320" fill="none" xmlns="http://www.w3.org/2000/svg">
<path d="M-7 32L23 80C53 128 113 224 173 250.7C233 277 293 235 353 224C413 213 473 235 533 245.3C593 256 653 256 713 224C773 192 833 128 893 85.3C953 43 1013 21 1073 53.3C1133 85 1193 171 1253 213.3C1313 256 1373 256 1403 256H1433V320H1403C1373 320 1313 320 1253 320C1193 320 1133 320 1073 320C1013 320 953 320 893 320C833 320 773 320 713 320C653 320 593 320 533 320C473 320 413 320 353 320C293 320 233 320 173 320C113 320 53 320 23 320H-7V32Z" fill="#0D74BF" fill-opacity="0.7"/>
</svg>
