<svg width="1440" height="332" viewBox="0 0 1440 332" fill="none" xmlns="http://www.w3.org/2000/svg">
<path d="M-3 33.2L27.1667 82.9999C57.3333 132.8 117.667 232.4 178 260.101C238.333 287.387 298.667 243.812 359 232.4C419.333 220.987 479.667 243.812 540 254.499C600.333 265.6 660.667 265.6 721 232.4C781.333 199.2 841.667 132.8 902 88.4987C962.333 44.6125 1022.67 21.7875 1083 55.2987C1143.33 88.1874 1203.67 177.412 1264 221.299C1324.33 265.6 1384.67 265.6 1414.83 265.6H1445V332H1414.83C1384.67 332 1324.33 332 1264 332C1203.67 332 1143.33 332 1083 332C1022.67 332 962.333 332 902 332C841.667 332 781.333 332 721 332C660.667 332 600.333 332 540 332C479.667 332 419.333 332 359 332C298.667 332 238.333 332 178 332C117.667 332 57.3333 332 27.1667 332H-3V33.2Z" fill="#0D74BF" fill-opacity="0.7"/>
<rect x="481" y="33" width="294" height="55" fill="#044B80"/>
<path d="M506.74 65.135C506.27 65.135 505.815 65.095 505.375 65.015C504.935 64.945 504.52 64.835 504.13 64.685C503.74 64.535 503.39 64.35 503.08 64.13C502.95 64.04 502.855 63.93 502.795 63.8C502.745 63.67 502.73 63.545 502.75 63.425C502.78 63.295 502.835 63.185 502.915 63.095C503.005 63.005 503.11 62.95 503.23 62.93C503.35 62.91 503.48 62.95 503.62 63.05C504.08 63.36 504.56 63.585 505.06 63.725C505.57 63.865 506.13 63.935 506.74 63.935C507.62 63.935 508.265 63.775 508.675 63.455C509.095 63.135 509.305 62.715 509.305 62.195C509.305 61.765 509.155 61.43 508.855 61.19C508.555 60.94 508.05 60.745 507.34 60.605L505.75 60.275C504.81 60.075 504.105 59.745 503.635 59.285C503.175 58.825 502.945 58.21 502.945 57.44C502.945 56.97 503.04 56.545 503.23 56.165C503.42 55.775 503.69 55.44 504.04 55.16C504.39 54.88 504.8 54.665 505.27 54.515C505.75 54.365 506.28 54.29 506.86 54.29C507.48 54.29 508.06 54.375 508.6 54.545C509.15 54.715 509.645 54.965 510.085 55.295C510.205 55.385 510.285 55.495 510.325 55.625C510.365 55.745 510.37 55.865 510.34 55.985C510.32 56.105 510.265 56.205 510.175 56.285C510.095 56.365 509.99 56.41 509.86 56.42C509.74 56.43 509.605 56.385 509.455 56.285C509.055 56.005 508.645 55.805 508.225 55.685C507.805 55.555 507.345 55.49 506.845 55.49C506.335 55.49 505.89 55.57 505.51 55.73C505.14 55.89 504.85 56.115 504.64 56.405C504.44 56.685 504.34 57.015 504.34 57.395C504.34 57.855 504.48 58.215 504.76 58.475C505.04 58.735 505.51 58.935 506.17 59.075L507.745 59.39C508.745 59.6 509.485 59.925 509.965 60.365C510.455 60.795 510.7 61.375 510.7 62.105C510.7 62.565 510.605 62.98 510.415 63.35C510.235 63.72 509.975 64.04 509.635 64.31C509.295 64.57 508.88 64.775 508.39 64.925C507.9 65.065 507.35 65.135 506.74 65.135ZM513.604 65.105C513.424 65.105 513.279 65.065 513.169 64.985C513.069 64.905 513.009 64.795 512.989 64.655C512.969 64.515 512.999 64.36 513.079 64.19L517.174 54.92C517.264 54.71 517.379 54.56 517.519 54.47C517.659 54.37 517.814 54.32 517.984 54.32C518.154 54.32 518.304 54.37 518.434 54.47C518.574 54.56 518.694 54.71 518.794 54.92L522.889 64.19C522.969 64.36 522.999 64.52 522.979 64.67C522.969 64.81 522.914 64.92 522.814 65C522.714 65.07 522.574 65.105 522.394 65.105C522.194 65.105 522.034 65.055 521.914 64.955C521.794 64.845 521.689 64.69 521.599 64.49L520.534 62L521.179 62.36H514.759L515.404 62L514.339 64.49C514.249 64.71 514.149 64.87 514.039 64.97C513.929 65.06 513.784 65.105 513.604 65.105ZM517.954 56L515.614 61.535L515.254 61.22H520.684L520.339 61.535L517.984 56H517.954ZM526.694 65.105C526.474 65.105 526.304 65.045 526.184 64.925C526.064 64.795 526.004 64.615 526.004 64.385V55.04C526.004 54.8 526.064 54.62 526.184 54.5C526.304 54.38 526.474 54.32 526.694 54.32C526.924 54.32 527.099 54.38 527.219 54.5C527.339 54.62 527.399 54.8 527.399 55.04V64.385C527.399 64.615 527.339 64.795 527.219 64.925C527.109 65.045 526.934 65.105 526.694 65.105ZM531.93 65C531.69 65 531.505 64.935 531.375 64.805C531.245 64.675 531.18 64.49 531.18 64.25V55.175C531.18 54.935 531.245 54.75 531.375 54.62C531.505 54.49 531.69 54.425 531.93 54.425H535.485C536.215 54.425 536.835 54.535 537.345 54.755C537.865 54.975 538.26 55.29 538.53 55.7C538.8 56.11 538.935 56.605 538.935 57.185C538.935 57.835 538.745 58.38 538.365 58.82C537.985 59.26 537.465 59.555 536.805 59.705V59.48C537.545 59.57 538.125 59.845 538.545 60.305C538.975 60.755 539.19 61.345 539.19 62.075C539.19 63.015 538.88 63.74 538.26 64.25C537.65 64.75 536.785 65 535.665 65H531.93ZM532.53 63.905H535.515C536.295 63.905 536.875 63.755 537.255 63.455C537.635 63.145 537.825 62.675 537.825 62.045C537.825 61.415 537.635 60.95 537.255 60.65C536.875 60.35 536.295 60.2 535.515 60.2H532.53V63.905ZM532.53 59.09H535.275C536.035 59.09 536.605 58.94 536.985 58.64C537.375 58.33 537.57 57.885 537.57 57.305C537.57 56.725 537.375 56.285 536.985 55.985C536.605 55.675 536.035 55.52 535.275 55.52H532.53V59.09ZM542.358 65.105C542.178 65.105 542.033 65.065 541.923 64.985C541.823 64.905 541.763 64.795 541.743 64.655C541.723 64.515 541.753 64.36 541.833 64.19L545.928 54.92C546.018 54.71 546.133 54.56 546.273 54.47C546.413 54.37 546.568 54.32 546.738 54.32C546.908 54.32 547.058 54.37 547.188 54.47C547.328 54.56 547.448 54.71 547.548 54.92L551.643 64.19C551.723 64.36 551.753 64.52 551.733 64.67C551.723 64.81 551.668 64.92 551.568 65C551.468 65.07 551.328 65.105 551.148 65.105C550.948 65.105 550.788 65.055 550.668 64.955C550.548 64.845 550.443 64.69 550.353 64.49L549.288 62L549.933 62.36H543.513L544.158 62L543.093 64.49C543.003 64.71 542.903 64.87 542.793 64.97C542.683 65.06 542.538 65.105 542.358 65.105ZM546.708 56L544.368 61.535L544.008 61.22H549.438L549.093 61.535L546.738 56H546.708ZM560.581 65.105C560.381 65.105 560.226 65.045 560.116 64.925C560.006 64.805 559.951 64.645 559.951 64.445V54.98C559.951 54.77 560.006 54.61 560.116 54.5C560.236 54.38 560.396 54.32 560.596 54.32C560.776 54.32 560.916 54.355 561.016 54.425C561.126 54.495 561.226 54.615 561.316 54.785L565.336 62.33H564.871L568.891 54.785C568.981 54.615 569.076 54.495 569.176 54.425C569.276 54.355 569.416 54.32 569.596 54.32C569.796 54.32 569.951 54.38 570.061 54.5C570.171 54.61 570.226 54.77 570.226 54.98V64.445C570.226 64.645 570.171 64.805 570.061 64.925C569.961 65.045 569.806 65.105 569.596 65.105C569.386 65.105 569.226 65.045 569.116 64.925C569.016 64.805 568.966 64.645 568.966 64.445V56.36H569.296L565.696 63.095C565.616 63.225 565.531 63.325 565.441 63.395C565.361 63.455 565.246 63.485 565.096 63.485C564.956 63.485 564.836 63.45 564.736 63.38C564.646 63.31 564.566 63.215 564.496 63.095L560.851 56.345H561.211V64.445C561.211 64.645 561.156 64.805 561.046 64.925C560.946 65.045 560.791 65.105 560.581 65.105ZM573.896 65.105C573.716 65.105 573.571 65.065 573.461 64.985C573.361 64.905 573.301 64.795 573.281 64.655C573.261 64.515 573.291 64.36 573.371 64.19L577.466 54.92C577.556 54.71 577.671 54.56 577.811 54.47C577.951 54.37 578.106 54.32 578.276 54.32C578.446 54.32 578.596 54.37 578.726 54.47C578.866 54.56 578.986 54.71 579.086 54.92L583.181 64.19C583.261 64.36 583.291 64.52 583.271 64.67C583.261 64.81 583.206 64.92 583.106 65C583.006 65.07 582.866 65.105 582.686 65.105C582.486 65.105 582.326 65.055 582.206 64.955C582.086 64.845 581.981 64.69 581.891 64.49L580.826 62L581.471 62.36H575.051L575.696 62L574.631 64.49C574.541 64.71 574.441 64.87 574.331 64.97C574.221 65.06 574.076 65.105 573.896 65.105ZM578.246 56L575.906 61.535L575.546 61.22H580.976L580.631 61.535L578.276 56H578.246ZM586.987 65.105C586.767 65.105 586.597 65.045 586.477 64.925C586.357 64.795 586.297 64.615 586.297 64.385V55.04C586.297 54.8 586.357 54.62 586.477 54.5C586.597 54.38 586.767 54.32 586.987 54.32C587.217 54.32 587.392 54.38 587.512 54.5C587.632 54.62 587.692 54.8 587.692 55.04V64.385C587.692 64.615 587.632 64.795 587.512 64.925C587.402 65.045 587.227 65.105 586.987 65.105ZM594.938 65.135C594.468 65.135 594.013 65.095 593.573 65.015C593.133 64.945 592.718 64.835 592.328 64.685C591.938 64.535 591.588 64.35 591.278 64.13C591.148 64.04 591.053 63.93 590.993 63.8C590.943 63.67 590.928 63.545 590.948 63.425C590.978 63.295 591.033 63.185 591.113 63.095C591.203 63.005 591.308 62.95 591.428 62.93C591.548 62.91 591.678 62.95 591.818 63.05C592.278 63.36 592.758 63.585 593.258 63.725C593.768 63.865 594.328 63.935 594.938 63.935C595.818 63.935 596.463 63.775 596.873 63.455C597.293 63.135 597.503 62.715 597.503 62.195C597.503 61.765 597.353 61.43 597.053 61.19C596.753 60.94 596.248 60.745 595.538 60.605L593.948 60.275C593.008 60.075 592.303 59.745 591.833 59.285C591.373 58.825 591.143 58.21 591.143 57.44C591.143 56.97 591.238 56.545 591.428 56.165C591.618 55.775 591.888 55.44 592.238 55.16C592.588 54.88 592.998 54.665 593.468 54.515C593.948 54.365 594.478 54.29 595.058 54.29C595.678 54.29 596.258 54.375 596.798 54.545C597.348 54.715 597.843 54.965 598.283 55.295C598.403 55.385 598.483 55.495 598.523 55.625C598.563 55.745 598.568 55.865 598.538 55.985C598.518 56.105 598.463 56.205 598.373 56.285C598.293 56.365 598.188 56.41 598.058 56.42C597.938 56.43 597.803 56.385 597.653 56.285C597.253 56.005 596.843 55.805 596.423 55.685C596.003 55.555 595.543 55.49 595.043 55.49C594.533 55.49 594.088 55.57 593.708 55.73C593.338 55.89 593.048 56.115 592.838 56.405C592.638 56.685 592.538 57.015 592.538 57.395C592.538 57.855 592.678 58.215 592.958 58.475C593.238 58.735 593.708 58.935 594.368 59.075L595.943 59.39C596.943 59.6 597.683 59.925 598.163 60.365C598.653 60.795 598.898 61.375 598.898 62.105C598.898 62.565 598.803 62.98 598.613 63.35C598.433 63.72 598.173 64.04 597.833 64.31C597.493 64.57 597.078 64.775 596.588 64.925C596.098 65.065 595.548 65.135 594.938 65.135ZM610.622 65.135C610.152 65.135 609.697 65.095 609.257 65.015C608.817 64.945 608.402 64.835 608.012 64.685C607.622 64.535 607.272 64.35 606.962 64.13C606.832 64.04 606.737 63.93 606.677 63.8C606.627 63.67 606.612 63.545 606.632 63.425C606.662 63.295 606.717 63.185 606.797 63.095C606.887 63.005 606.992 62.95 607.112 62.93C607.232 62.91 607.362 62.95 607.502 63.05C607.962 63.36 608.442 63.585 608.942 63.725C609.452 63.865 610.012 63.935 610.622 63.935C611.502 63.935 612.147 63.775 612.557 63.455C612.977 63.135 613.187 62.715 613.187 62.195C613.187 61.765 613.037 61.43 612.737 61.19C612.437 60.94 611.932 60.745 611.222 60.605L609.632 60.275C608.692 60.075 607.987 59.745 607.517 59.285C607.057 58.825 606.827 58.21 606.827 57.44C606.827 56.97 606.922 56.545 607.112 56.165C607.302 55.775 607.572 55.44 607.922 55.16C608.272 54.88 608.682 54.665 609.152 54.515C609.632 54.365 610.162 54.29 610.742 54.29C611.362 54.29 611.942 54.375 612.482 54.545C613.032 54.715 613.527 54.965 613.967 55.295C614.087 55.385 614.167 55.495 614.207 55.625C614.247 55.745 614.252 55.865 614.222 55.985C614.202 56.105 614.147 56.205 614.057 56.285C613.977 56.365 613.872 56.41 613.742 56.42C613.622 56.43 613.487 56.385 613.337 56.285C612.937 56.005 612.527 55.805 612.107 55.685C611.687 55.555 611.227 55.49 610.727 55.49C610.217 55.49 609.772 55.57 609.392 55.73C609.022 55.89 608.732 56.115 608.522 56.405C608.322 56.685 608.222 57.015 608.222 57.395C608.222 57.855 608.362 58.215 608.642 58.475C608.922 58.735 609.392 58.935 610.052 59.075L611.627 59.39C612.627 59.6 613.367 59.925 613.847 60.365C614.337 60.795 614.582 61.375 614.582 62.105C614.582 62.565 614.487 62.98 614.297 63.35C614.117 63.72 613.857 64.04 613.517 64.31C613.177 64.57 612.762 64.775 612.272 64.925C611.782 65.065 611.232 65.135 610.622 65.135ZM622.194 65.135C621.194 65.135 620.329 64.915 619.599 64.475C618.869 64.025 618.299 63.395 617.889 62.585C617.489 61.765 617.289 60.805 617.289 59.705C617.289 58.875 617.404 58.13 617.634 57.47C617.864 56.8 618.189 56.23 618.609 55.76C619.039 55.28 619.554 54.915 620.154 54.665C620.764 54.415 621.444 54.29 622.194 54.29C623.194 54.29 624.059 54.51 624.789 54.95C625.519 55.39 626.084 56.015 626.484 56.825C626.884 57.635 627.084 58.59 627.084 59.69C627.084 60.52 626.969 61.27 626.739 61.94C626.509 62.61 626.179 63.185 625.749 63.665C625.329 64.145 624.819 64.51 624.219 64.76C623.619 65.01 622.944 65.135 622.194 65.135ZM622.194 63.905C622.914 63.905 623.529 63.74 624.039 63.41C624.549 63.08 624.939 62.6 625.209 61.97C625.489 61.34 625.629 60.585 625.629 59.705C625.629 58.375 625.329 57.345 624.729 56.615C624.139 55.885 623.294 55.52 622.194 55.52C621.474 55.52 620.854 55.685 620.334 56.015C619.824 56.335 619.434 56.81 619.164 57.44C618.894 58.06 618.759 58.815 618.759 59.705C618.759 61.025 619.059 62.055 619.659 62.795C620.259 63.535 621.104 63.905 622.194 63.905ZM631.252 65C631.012 65 630.827 64.935 630.697 64.805C630.567 64.675 630.502 64.49 630.502 64.25V55.175C630.502 54.935 630.567 54.75 630.697 54.62C630.827 54.49 631.012 54.425 631.252 54.425H634.807C635.537 54.425 636.157 54.535 636.667 54.755C637.187 54.975 637.582 55.29 637.852 55.7C638.122 56.11 638.257 56.605 638.257 57.185C638.257 57.835 638.067 58.38 637.687 58.82C637.307 59.26 636.787 59.555 636.127 59.705V59.48C636.867 59.57 637.447 59.845 637.867 60.305C638.297 60.755 638.512 61.345 638.512 62.075C638.512 63.015 638.202 63.74 637.582 64.25C636.972 64.75 636.107 65 634.987 65H631.252ZM631.852 63.905H634.837C635.617 63.905 636.197 63.755 636.577 63.455C636.957 63.145 637.147 62.675 637.147 62.045C637.147 61.415 636.957 60.95 636.577 60.65C636.197 60.35 635.617 60.2 634.837 60.2H631.852V63.905ZM631.852 59.09H634.597C635.357 59.09 635.927 58.94 636.307 58.64C636.697 58.33 636.892 57.885 636.892 57.305C636.892 56.725 636.697 56.285 636.307 55.985C635.927 55.675 635.357 55.52 634.597 55.52H631.852V59.09ZM642.622 65.105C642.402 65.105 642.232 65.045 642.112 64.925C641.992 64.795 641.932 64.615 641.932 64.385V55.13C641.932 54.9 641.992 54.725 642.112 54.605C642.242 54.485 642.417 54.425 642.637 54.425H646.207C647.347 54.425 648.222 54.695 648.832 55.235C649.452 55.765 649.762 56.52 649.762 57.5C649.762 58.14 649.622 58.69 649.342 59.15C649.062 59.6 648.657 59.945 648.127 60.185C647.597 60.425 646.957 60.545 646.207 60.545L646.357 60.335H646.687C647.087 60.335 647.432 60.435 647.722 60.635C648.022 60.835 648.287 61.155 648.517 61.595L649.897 64.13C649.987 64.29 650.027 64.445 650.017 64.595C650.007 64.745 649.952 64.87 649.852 64.97C649.752 65.06 649.607 65.105 649.417 65.105C649.217 65.105 649.057 65.065 648.937 64.985C648.817 64.895 648.712 64.765 648.622 64.595L647.002 61.625C646.782 61.205 646.532 60.93 646.252 60.8C645.972 60.66 645.597 60.59 645.127 60.59H643.327V64.385C643.327 64.615 643.267 64.795 643.147 64.925C643.037 65.045 642.862 65.105 642.622 65.105ZM643.327 59.51H645.982C646.782 59.51 647.382 59.345 647.782 59.015C648.182 58.675 648.382 58.18 648.382 57.53C648.382 56.88 648.182 56.39 647.782 56.06C647.382 55.73 646.782 55.565 645.982 55.565H643.327V59.51ZM654.025 65C653.785 65 653.6 64.935 653.47 64.805C653.34 64.675 653.275 64.49 653.275 64.25V55.175C653.275 54.935 653.34 54.75 653.47 54.62C653.6 54.49 653.785 54.425 654.025 54.425H659.545C659.735 54.425 659.88 54.475 659.98 54.575C660.09 54.665 660.145 54.8 660.145 54.98C660.145 55.17 660.09 55.315 659.98 55.415C659.88 55.515 659.735 55.565 659.545 55.565H654.625V59.06H659.23C659.42 59.06 659.565 59.11 659.665 59.21C659.765 59.31 659.815 59.45 659.815 59.63C659.815 59.82 659.765 59.965 659.665 60.065C659.565 60.155 659.42 60.2 659.23 60.2H654.625V63.86H659.545C659.735 63.86 659.88 63.91 659.98 64.01C660.09 64.1 660.145 64.24 660.145 64.43C660.145 64.62 660.09 64.765 659.98 64.865C659.88 64.955 659.735 65 659.545 65H654.025ZM669.165 65.105C668.945 65.105 668.775 65.045 668.655 64.925C668.535 64.795 668.475 64.615 668.475 64.385V55.04C668.475 54.8 668.535 54.62 668.655 54.5C668.775 54.38 668.945 54.32 669.165 54.32C669.395 54.32 669.57 54.38 669.69 54.5C669.81 54.62 669.87 54.8 669.87 55.04V59.045H675.99V55.04C675.99 54.8 676.05 54.62 676.17 54.5C676.29 54.38 676.465 54.32 676.695 54.32C676.915 54.32 677.085 54.38 677.205 54.5C677.325 54.62 677.385 54.8 677.385 55.04V64.385C677.385 64.615 677.325 64.795 677.205 64.925C677.085 65.045 676.915 65.105 676.695 65.105C676.465 65.105 676.29 65.045 676.17 64.925C676.05 64.795 675.99 64.615 675.99 64.385V60.23H669.87V64.385C669.87 64.615 669.81 64.795 669.69 64.925C669.58 65.045 669.405 65.105 669.165 65.105ZM681.87 65.105C681.65 65.105 681.48 65.045 681.36 64.925C681.24 64.795 681.18 64.615 681.18 64.385V55.04C681.18 54.8 681.24 54.62 681.36 54.5C681.48 54.38 681.65 54.32 681.87 54.32C682.1 54.32 682.275 54.38 682.395 54.5C682.515 54.62 682.575 54.8 682.575 55.04V64.385C682.575 64.615 682.515 64.795 682.395 64.925C682.285 65.045 682.11 65.105 681.87 65.105ZM687.046 65.105C686.826 65.105 686.656 65.045 686.536 64.925C686.416 64.795 686.356 64.615 686.356 64.385V55.13C686.356 54.9 686.416 54.725 686.536 54.605C686.666 54.485 686.841 54.425 687.061 54.425H690.631C691.771 54.425 692.646 54.705 693.256 55.265C693.876 55.825 694.186 56.61 694.186 57.62C694.186 58.64 693.876 59.43 693.256 59.99C692.646 60.55 691.771 60.83 690.631 60.83H687.751V64.385C687.751 64.615 687.691 64.795 687.571 64.925C687.461 65.045 687.286 65.105 687.046 65.105ZM687.751 59.705H690.451C691.231 59.705 691.816 59.53 692.206 59.18C692.606 58.82 692.806 58.3 692.806 57.62C692.806 56.94 692.606 56.43 692.206 56.09C691.816 55.74 691.231 55.565 690.451 55.565H687.751V59.705ZM697.907 65C697.667 65 697.482 64.935 697.352 64.805C697.222 64.675 697.157 64.49 697.157 64.25V55.175C697.157 54.935 697.222 54.75 697.352 54.62C697.482 54.49 697.667 54.425 697.907 54.425H703.427C703.617 54.425 703.762 54.475 703.862 54.575C703.972 54.665 704.027 54.8 704.027 54.98C704.027 55.17 703.972 55.315 703.862 55.415C703.762 55.515 703.617 55.565 703.427 55.565H698.507V59.06H703.112C703.302 59.06 703.447 59.11 703.547 59.21C703.647 59.31 703.697 59.45 703.697 59.63C703.697 59.82 703.647 59.965 703.547 60.065C703.447 60.155 703.302 60.2 703.112 60.2H698.507V63.86H703.427C703.617 63.86 703.762 63.91 703.862 64.01C703.972 64.1 704.027 64.24 704.027 64.43C704.027 64.62 703.972 64.765 703.862 64.865C703.762 64.955 703.617 65 703.427 65H697.907ZM707.886 65.105C707.666 65.105 707.496 65.045 707.376 64.925C707.256 64.795 707.196 64.615 707.196 64.385V55.13C707.196 54.9 707.256 54.725 707.376 54.605C707.506 54.485 707.681 54.425 707.901 54.425H711.471C712.611 54.425 713.486 54.695 714.096 55.235C714.716 55.765 715.026 56.52 715.026 57.5C715.026 58.14 714.886 58.69 714.606 59.15C714.326 59.6 713.921 59.945 713.391 60.185C712.861 60.425 712.221 60.545 711.471 60.545L711.621 60.335H711.951C712.351 60.335 712.696 60.435 712.986 60.635C713.286 60.835 713.551 61.155 713.781 61.595L715.161 64.13C715.251 64.29 715.291 64.445 715.281 64.595C715.271 64.745 715.216 64.87 715.116 64.97C715.016 65.06 714.871 65.105 714.681 65.105C714.481 65.105 714.321 65.065 714.201 64.985C714.081 64.895 713.976 64.765 713.886 64.595L712.266 61.625C712.046 61.205 711.796 60.93 711.516 60.8C711.236 60.66 710.861 60.59 710.391 60.59H708.591V64.385C708.591 64.615 708.531 64.795 708.411 64.925C708.301 65.045 708.126 65.105 707.886 65.105ZM708.591 59.51H711.246C712.046 59.51 712.646 59.345 713.046 59.015C713.446 58.675 713.646 58.18 713.646 57.53C713.646 56.88 713.446 56.39 713.046 56.06C712.646 55.73 712.046 55.565 711.246 55.565H708.591V59.51ZM719.274 65.105C719.044 65.105 718.864 65.04 718.734 64.91C718.604 64.78 718.539 64.595 718.539 64.355V55.175C718.539 54.935 718.604 54.75 718.734 54.62C718.864 54.49 719.049 54.425 719.289 54.425H724.674C724.874 54.425 725.024 54.475 725.124 54.575C725.224 54.665 725.274 54.8 725.274 54.98C725.274 55.17 725.224 55.315 725.124 55.415C725.024 55.515 724.874 55.565 724.674 55.565H719.934V59.105H724.374C724.564 59.105 724.709 59.155 724.809 59.255C724.909 59.355 724.959 59.49 724.959 59.66C724.959 59.85 724.909 59.995 724.809 60.095C724.709 60.195 724.564 60.245 724.374 60.245H719.934V64.355C719.934 64.855 719.714 65.105 719.274 65.105ZM732.331 65.135C731.331 65.135 730.466 64.915 729.736 64.475C729.006 64.025 728.436 63.395 728.026 62.585C727.626 61.765 727.426 60.805 727.426 59.705C727.426 58.875 727.541 58.13 727.771 57.47C728.001 56.8 728.326 56.23 728.746 55.76C729.176 55.28 729.691 54.915 730.291 54.665C730.901 54.415 731.581 54.29 732.331 54.29C733.331 54.29 734.196 54.51 734.926 54.95C735.656 55.39 736.221 56.015 736.621 56.825C737.021 57.635 737.221 58.59 737.221 59.69C737.221 60.52 737.106 61.27 736.876 61.94C736.646 62.61 736.316 63.185 735.886 63.665C735.466 64.145 734.956 64.51 734.356 64.76C733.756 65.01 733.081 65.135 732.331 65.135ZM732.331 63.905C733.051 63.905 733.666 63.74 734.176 63.41C734.686 63.08 735.076 62.6 735.346 61.97C735.626 61.34 735.766 60.585 735.766 59.705C735.766 58.375 735.466 57.345 734.866 56.615C734.276 55.885 733.431 55.52 732.331 55.52C731.611 55.52 730.991 55.685 730.471 56.015C729.961 56.335 729.571 56.81 729.301 57.44C729.031 58.06 728.896 58.815 728.896 59.705C728.896 61.025 729.196 62.055 729.796 62.795C730.396 63.535 731.241 63.905 732.331 63.905ZM745.288 65.135C744.238 65.135 743.338 64.915 742.588 64.475C741.838 64.035 741.258 63.41 740.848 62.6C740.448 61.78 740.248 60.815 740.248 59.705C740.248 58.875 740.363 58.13 740.593 57.47C740.823 56.8 741.153 56.23 741.583 55.76C742.013 55.28 742.538 54.915 743.158 54.665C743.788 54.415 744.498 54.29 745.288 54.29C745.888 54.29 746.463 54.375 747.013 54.545C747.573 54.715 748.053 54.955 748.453 55.265C748.613 55.375 748.718 55.5 748.768 55.64C748.818 55.78 748.823 55.915 748.783 56.045C748.753 56.165 748.688 56.27 748.588 56.36C748.498 56.44 748.383 56.485 748.243 56.495C748.103 56.495 747.953 56.44 747.793 56.33C747.443 56.06 747.058 55.865 746.638 55.745C746.228 55.615 745.788 55.55 745.318 55.55C744.548 55.55 743.893 55.715 743.353 56.045C742.823 56.365 742.418 56.835 742.138 57.455C741.868 58.065 741.733 58.815 741.733 59.705C741.733 60.585 741.868 61.34 742.138 61.97C742.418 62.59 742.823 63.065 743.353 63.395C743.893 63.715 744.548 63.875 745.318 63.875C745.788 63.875 746.233 63.81 746.653 63.68C747.083 63.55 747.478 63.35 747.838 63.08C747.998 62.97 748.143 62.92 748.273 62.93C748.413 62.94 748.528 62.985 748.618 63.065C748.708 63.135 748.768 63.235 748.798 63.365C748.838 63.485 748.838 63.61 748.798 63.74C748.758 63.87 748.668 63.985 748.528 64.085C748.118 64.435 747.628 64.7 747.058 64.88C746.498 65.05 745.908 65.135 745.288 65.135ZM756.203 65.135C755.203 65.135 754.338 64.915 753.608 64.475C752.878 64.025 752.308 63.395 751.898 62.585C751.498 61.765 751.298 60.805 751.298 59.705C751.298 58.875 751.413 58.13 751.643 57.47C751.873 56.8 752.198 56.23 752.618 55.76C753.048 55.28 753.563 54.915 754.163 54.665C754.773 54.415 755.453 54.29 756.203 54.29C757.203 54.29 758.068 54.51 758.798 54.95C759.528 55.39 760.093 56.015 760.493 56.825C760.893 57.635 761.093 58.59 761.093 59.69C761.093 60.52 760.978 61.27 760.748 61.94C760.518 62.61 760.188 63.185 759.758 63.665C759.338 64.145 758.828 64.51 758.228 64.76C757.628 65.01 756.953 65.135 756.203 65.135ZM756.203 63.905C756.923 63.905 757.538 63.74 758.048 63.41C758.558 63.08 758.948 62.6 759.218 61.97C759.498 61.34 759.638 60.585 759.638 59.705C759.638 58.375 759.338 57.345 758.738 56.615C758.148 55.885 757.303 55.52 756.203 55.52C755.483 55.52 754.863 55.685 754.343 56.015C753.833 56.335 753.443 56.81 753.173 57.44C752.903 58.06 752.768 58.815 752.768 59.705C752.768 61.025 753.068 62.055 753.668 62.795C754.268 63.535 755.113 63.905 756.203 63.905Z" fill="#73C4FF"/>
</svg>
