<svg width="1440" height="320" viewBox="0 0 1440 320" fill="none" xmlns="http://www.w3.org/2000/svg">
<path d="M0 224L30 192C60 160 120 96 180 96C240 96 300 160 360 160C420 160 480 96 540 101.3C600 107 660 181 720 208C780 235 840 213 900 208C960 203 1020 213 1080 234.7C1140 256 1200 288 1260 256C1320 224 1380 128 1410 80L1440 32V0H1410C1380 0 1320 0 1260 0C1200 0 1140 0 1080 0C1020 0 960 0 900 0C840 0 780 0 720 0C660 0 600 0 540 0C480 0 420 0 360 0C300 0 240 0 180 0C120 0 60 0 30 0H0V224Z" fill="#0D74BF" fill-opacity="0.7"/>
</svg>
