<svg width="1438" height="320" viewBox="0 0 1438 320" fill="none" xmlns="http://www.w3.org/2000/svg">
<path d="M0 128L26.7 112C53.3 95.9999 107 63.9999 160 47.9999C213.3 31.9999 267 31.9999 320 69.2999C373.3 107 427 181 480 186.7C533.3 192 587 128 640 117.3C693.3 107 747 149 800 176C853.3 203 907 213 960 202.7C1013.3 192 1067 160 1120 170.7C1173.3 181 1227 235 1280 224C1333.3 213 1387 139 1413 101.3L1440 63.9999V320H1413.3C1386.7 320 1333 320 1280 320C1226.7 320 1173 320 1120 320C1066.7 320 1013 320 960 320C906.7 320 853 320 800 320C746.7 320 693 320 640 320C586.7 320 533 320 480 320C426.7 320 373 320 320 320C266.7 320 213 320 160 320C106.7 320 53 320 27 320H0V128Z" fill="#DE4443"/>
</svg>
