<svg width="1440" height="320" viewBox="0 0 1440 320" fill="none" xmlns="http://www.w3.org/2000/svg">
<path d="M0 32L30 80C60 128 120 224 180 250.7C240 277 300 235 360 224C420 213 480 235 540 245.3C600 256 660 256 720 224C780 192 840 128 900 85.3C960 43 1020 21 1080 53.3C1140 85 1200 171 1260 213.3C1320 256 1380 256 1410 256H1440V320H1410C1380 320 1320 320 1260 320C1200 320 1140 320 1080 320C1020 320 960 320 900 320C840 320 780 320 720 320C660 320 600 320 540 320C480 320 420 320 360 320C300 320 240 320 180 320C120 320 60 320 30 320H0V32Z" fill="#0D74BF" fill-opacity="0.7"/>
</svg>
