<svg width="1440" height="244" viewBox="0 0 1440 244" fill="none" xmlns="http://www.w3.org/2000/svg">
<path d="M0 146.4L21.8303 130.159C43.6606 113.612 87.1208 81.5874 131.182 65.0412C174.742 48.7999 218.303 48.7999 262.364 77.2412C305.924 105.987 349.485 162.412 393.546 183C437.006 203.587 480.667 186.812 524.728 154.559C568.088 122 611.849 73.1999 655.91 69.1586C699.17 64.8124 743.031 105.987 786.09 130.159C830.252 154.787 874.213 162.412 917.272 142.359C961.333 122 1005.39 73.1999 1048.45 69.1586C1092.42 64.8124 1136.58 105.987 1179.64 105.759C1223.5 105.987 1266.76 64.8124 1310.82 44.7587C1354.58 24.3999 1397.94 24.3999 1419.97 24.3999H1442V244H1420.17C1398.34 244 1354.88 244 1310.82 244C1267.26 244 1223.7 244 1179.64 244C1136.08 244 1092.52 244 1048.45 244C1004.99 244 961.333 244 917.272 244C873.912 244 830.151 244 786.09 244C742.83 244 698.969 244 655.91 244C611.748 244 567.788 244 524.728 244C480.667 244 436.606 244 393.546 244C349.585 244 305.424 244 262.364 244C218.503 244 175.243 244 131.182 244C87.4213 244 44.0611 244 22.0306 244H0V146.4Z" fill="#D9D802" fill-opacity="0.7"/>
</svg>
