<svg width="1429" height="358" viewBox="0 0 1429 358" fill="none" xmlns="http://www.w3.org/2000/svg">
<g clip-path="url(#clip0_211_141)">
<path d="M-11 35.8L19 89.5001C49 143.2 109 250.6 169 280.471C229 309.894 289 262.906 349 250.6C409 238.294 469 262.906 529 274.429C589 286.4 649 286.4 709 250.6C769 214.8 829 143.2 889 95.4294C949 48.1063 1009 23.4938 1069 59.6294C1129 95.0938 1189 191.306 1249 238.629C1309 286.4 1369 286.4 1399 286.4H1429V358H1399C1369 358 1309 358 1249 358C1189 358 1129 358 1069 358C1009 358 949 358 889 358C829 358 769 358 709 358C649 358 589 358 529 358C469 358 409 358 349 358C289 358 229 358 169 358C109 358 49 358 19 358H-11V35.8Z" fill="#0D74BF" fill-opacity="0.7"/>
</g>
<defs>
<clipPath id="clip0_211_141">
<rect width="1440" height="358" fill="white" transform="translate(-11)"/>
</clipPath>
</defs>
</svg>
