<svg width="1436" height="332" viewBox="0 0 1436 332" fill="none" xmlns="http://www.w3.org/2000/svg">
<path d="M0 33.2L29.9167 82.9999C59.8333 132.8 119.667 232.4 179.5 260.101C239.333 287.387 299.167 243.812 359 232.4C418.833 220.987 478.667 243.812 538.5 254.499C598.333 265.6 658.167 265.6 718 232.4C777.833 199.2 837.667 132.8 897.5 88.4987C957.333 44.6125 1017.17 21.7875 1077 55.2987C1136.83 88.1874 1196.67 177.412 1256.5 221.299C1316.33 265.6 1376.17 265.6 1406.08 265.6H1436V332H1406.08C1376.17 332 1316.33 332 1256.5 332C1196.67 332 1136.83 332 1077 332C1017.17 332 957.333 332 897.5 332C837.667 332 777.833 332 718 332C658.167 332 598.333 332 538.5 332C478.667 332 418.833 332 359 332C299.167 332 239.333 332 179.5 332C119.667 332 59.8333 332 29.9167 332H0V33.2Z" fill="#0D74BF" fill-opacity="0.7"/>
</svg>
